# xmcd
#
# Track frame offsets:
#	150
#	11775
#	22825
#	33907
#	39777
#	49675
#	59020
#	71325
#
# Disc length: 1060 seconds
#
# Revision: 0
# Processed by: cddbd v1.5.1PL2 Copyright (c) Steve Scherf et al.
# Submitted via: dBpowerAMP V4.0
#
DISCID=5b042208
DTITLE=Various Artist - Texas Bluegrass - Cotton Eyed Joe
DYEAR=1900
DGENRE=Bluegrass
TTITLE0=Fiddlin' Joe (Ramona Jones)
TTITLE1=Maiden's Prayer (Bob Wills)
TTITLE2=San Antonio Rose (Reno and Smiley)
TTITLE3=Streets of Laredo (Willis Brothers)
TTITLE4=Cowboy's Sweetheart (Patsy Montana)
TTITLE5=Border Ride (Jim and Jesse)
TTITLE6=Pappy's Banjo Boogie (Light Crust Doughboys)
TTITLE7=Cotton Eyed Joe (Tommy Jackson)
EXTD=Richmond - NCD-2235
EXTT0=
EXTT1=
EXTT2=
EXTT3=
EXTT4=
EXTT5=
EXTT6=
EXTT7=
PLAYORDER=
